<svg xmlns="http://www.w3.org/2000/svg" fill="none" viewBox="98 98 828 828">
<g filter="url(#filter0_d_167_22)">
<rect x="98" y="98" width="828" height="828" rx="180" fill="url(#paint0_linear_167_22)"/>
</g>
<g filter="url(#filter1_di_167_22)">
<circle cx="512" cy="512" r="348" fill="#616463"/>
</g>
<g filter="url(#filter2_di_167_22)">
<path fill-rule="evenodd" clip-rule="evenodd" d="M525.382 294.406L520.296 322.18C515.61 321.972 510.955 321.935 506.337 322.066L501.64 294.24L498.13 294.436L496.567 322.593C491.895 322.966 487.266 323.51 482.688 324.219L474.555 297.248L471.097 297.882L473.071 325.964C468.485 326.919 463.956 328.041 459.49 329.323L448.059 303.626L444.709 304.689L450.179 332.26C445.751 333.784 441.394 335.467 437.114 337.304L422.573 313.275L419.382 314.75L428.252 341.381C424.051 343.446 419.933 345.664 415.908 348.026L398.497 326.042L395.515 327.905L407.632 353.171C403.719 355.745 399.904 358.46 396.196 361.311L376.211 341.726L373.486 343.948L388.635 367.434C385.067 370.478 381.612 373.652 378.276 376.951L356.065 360.08L353.641 362.626L371.548 383.95C368.38 387.419 365.338 391.008 362.428 394.709L338.38 380.814L336.294 383.643L356.641 402.471C353.924 406.315 351.345 410.268 348.912 414.321L323.432 403.6L321.717 406.669L344.157 422.721C341.938 426.884 339.869 431.143 337.958 435.49L311.458 428.081L310.141 431.34L334.309 444.396C332.63 448.811 331.11 453.308 329.756 457.882L302.648 453.869L301.75 457.268L327.266 467.154C326.156 471.749 325.211 476.413 324.439 481.14L297.138 480.558L296.673 484.043L323.132 490.629C322.829 493.316 322.583 496.021 322.392 498.744C322.248 500.8 322.138 502.85 322.06 504.895L295.017 507.728L294.992 511.243L321.935 514.446C321.992 519.265 322.23 524.047 322.644 528.783L296.317 534.949L296.733 538.439L323.711 538.241C324.373 543.024 325.215 547.755 326.23 552.426L301.02 561.792L301.87 565.203L328.476 561.643C329.739 566.311 331.177 570.912 332.782 575.437L309.049 587.834L310.32 591.112L336.167 584.272C338.012 588.748 340.023 593.142 342.194 597.445L320.28 612.665L321.952 615.757L346.656 605.765C349.051 609.978 351.603 614.092 354.305 618.101L334.533 635.892L336.579 638.75L359.764 625.781C362.67 629.665 365.724 633.436 368.916 637.086L351.585 657.149L353.974 659.729L375.278 644.009C378.652 647.504 382.161 650.871 385.796 654.103L371.169 676.102L373.861 678.362L392.959 660.161C396.749 663.21 400.66 666.117 404.685 668.874L392.971 692.451L395.926 694.355L412.537 673.973C416.683 676.522 420.938 678.917 425.293 681.15L416.652 705.938L419.822 707.457L433.713 685.208C438.148 687.211 442.677 689.05 447.294 690.717L441.836 716.351L445.171 717.461L456.153 693.67C460.801 695.093 465.528 696.343 470.329 697.414L468.127 723.526L471.575 724.209L479.491 699.223C484.27 700.045 489.116 700.691 494.02 701.153L495.109 727.349L498.616 727.594L503.339 701.804C508.26 702.029 513.149 702.064 517.996 701.915L522.358 727.76L525.868 727.564L527.321 701.399C532.224 701.007 537.079 700.427 541.879 699.665L549.443 724.752L552.901 724.117L551.063 697.974C555.866 696.965 560.608 695.774 565.278 694.408L575.939 718.374L579.29 717.311L574.181 691.562C578.805 689.956 583.351 688.176 587.812 686.229L601.425 708.725L604.616 707.25L596.297 682.273C600.667 680.102 604.945 677.768 609.122 675.277L625.502 695.958L628.483 694.095L617.059 670.274C621.108 667.58 625.051 664.734 628.878 661.743L647.788 680.273L650.512 678.052L636.142 655.772C639.811 652.602 643.359 649.293 646.779 645.851L667.933 661.92L670.357 659.374L653.253 639.005C656.486 635.412 659.587 631.692 662.545 627.854L685.618 641.186L687.705 638.357L668.121 620.235C670.869 616.277 673.473 612.206 675.922 608.03L700.566 618.399L702.281 615.331L680.504 599.752C682.723 595.494 684.787 591.138 686.688 586.691L712.54 593.919L713.857 590.66L690.195 577.877C691.85 573.393 693.342 568.825 694.663 564.18L721.351 568.13L722.249 564.732L697.036 554.963C698.106 550.33 699.007 545.629 699.734 540.864L726.861 541.441L727.325 537.957L700.939 531.389C701.147 529.353 701.323 527.307 701.467 525.251C701.657 522.529 701.789 519.815 701.864 517.113L728.982 514.272L729.006 510.757L701.89 507.534C701.783 502.745 701.496 497.995 701.037 493.291L727.681 487.051L727.265 483.56L699.861 483.762C699.157 479.045 698.277 474.379 697.23 469.773L722.978 460.208L722.128 456.797L694.856 460.446C693.568 455.875 692.112 451.371 690.494 446.94L714.949 434.166L713.678 430.888L686.955 437.96C685.109 433.607 683.105 429.334 680.95 425.148L703.719 409.335L702.047 406.243L676.299 416.657C673.933 412.587 671.419 408.61 668.765 404.734L689.465 386.108L687.419 383.25L663.077 396.866C660.233 393.135 657.253 389.511 654.144 386.001L672.413 364.85L670.024 362.271L647.509 378.884C644.233 375.545 640.833 372.325 637.315 369.231L652.83 345.898L650.137 343.638L629.836 362.985C626.179 360.086 622.411 357.317 618.538 354.687L631.027 329.549L628.072 327.644L610.329 349.416C606.347 347.002 602.266 344.728 598.094 342.603L607.347 316.062L604.176 314.543L589.282 338.399C585.038 336.508 580.709 334.767 576.3 333.182L582.163 305.648L578.827 304.539L567.02 330.116C562.584 328.777 558.076 327.594 553.502 326.575L555.871 298.474L552.423 297.791L543.9 324.692C539.345 323.921 534.731 323.309 530.062 322.863L528.889 294.651L525.382 294.406ZM500.559 674.6C590.362 680.88 668.253 613.171 674.532 523.368C680.812 433.565 613.103 355.674 523.3 349.394C433.497 343.115 355.606 410.824 349.326 500.627C343.047 590.43 410.756 668.321 500.559 674.6Z" fill="url(#paint1_linear_167_22)"/>
</g>
<g filter="url(#filter3_di_167_22)">
<path fill-rule="evenodd" clip-rule="evenodd" d="M674.702 226.194C674.267 225.943 673.713 226.053 673.408 226.452L648.12 259.467C642.164 256.239 636.141 253.244 630.062 250.478L641.064 210.397C641.197 209.912 640.95 209.405 640.487 209.21L637.723 208.048C637.26 207.854 636.725 208.032 636.472 208.466L615.547 244.347C609.239 241.885 602.882 239.661 596.487 237.673L602.37 196.59C602.441 196.093 602.133 195.621 601.649 195.486L598.761 194.679C598.278 194.544 597.769 194.789 597.572 195.251L581.333 233.415C574.77 231.766 568.177 230.358 561.565 229.187L562.252 187.744C562.261 187.242 561.895 186.811 561.399 186.738L558.433 186.3C557.936 186.227 557.462 186.533 557.325 187.016L546.008 226.874C539.293 226.064 532.57 225.495 525.85 225.164L521.341 183.994C521.286 183.495 520.87 183.114 520.368 183.104L517.37 183.041C516.868 183.03 516.436 183.394 516.361 183.89L510.134 224.823C503.374 224.861 496.628 225.139 489.909 225.652L480.283 185.402C480.166 184.914 479.705 184.588 479.206 184.64L476.224 184.954C475.724 185.006 475.341 185.421 475.329 185.923L474.282 227.275C467.58 228.156 460.915 229.273 454.3 230.62L439.724 191.945C439.547 191.475 439.049 191.209 438.56 191.324L435.641 192.008C435.152 192.123 434.824 192.583 434.875 193.082L439.012 234.171C432.467 235.88 425.983 237.818 419.572 239.983L400.306 203.519C400.071 203.075 399.544 202.874 399.073 203.049L396.263 204.094C395.792 204.269 395.524 204.766 395.637 205.255L404.867 245.398C398.577 247.91 392.371 250.646 386.261 253.601L362.649 219.942C362.361 219.531 361.812 219.398 361.367 219.631L358.71 221.02C358.265 221.252 358.062 221.779 358.235 222.25L372.376 260.792C366.439 264.074 360.608 267.573 354.896 271.284L327.348 240.956C327.01 240.585 326.449 240.521 326.037 240.808L323.575 242.519C323.163 242.805 323.027 243.353 323.257 243.799L342.053 280.138C336.567 284.145 331.208 288.359 325.989 292.778L294.958 266.229C294.577 265.902 294.012 265.909 293.639 266.245L291.411 268.251C291.038 268.587 290.972 269.148 291.256 269.562L314.389 303.157C309.448 307.827 304.653 312.694 300.017 317.754L265.992 295.361C265.572 295.085 265.013 295.163 264.685 295.543L262.726 297.813C262.398 298.193 262.402 298.757 262.737 299.132L289.836 329.494C285.523 334.75 281.372 340.189 277.395 345.81L240.905 327.895C240.454 327.673 239.909 327.82 239.631 328.239L237.972 330.736C237.694 331.154 237.769 331.714 238.148 332.044L268.774 358.714C266.78 361.88 264.838 365.097 262.951 368.366C261.397 371.056 259.892 373.762 258.436 376.48L220.093 363.316C219.618 363.153 219.096 363.367 218.873 363.817L217.54 366.502C217.317 366.952 217.461 367.498 217.878 367.778L251.489 390.321C248.552 396.585 245.861 402.911 243.413 409.287L203.885 401.066C203.394 400.963 202.902 401.242 202.737 401.716L201.751 404.547C201.586 405.021 201.798 405.545 202.247 405.77L238.268 423.847C236.137 430.44 234.257 437.075 232.626 443.74L192.536 440.55C192.036 440.51 191.583 440.847 191.479 441.339L190.856 444.271C190.751 444.762 191.027 445.255 191.501 445.422L229.37 458.795C228.088 465.61 227.059 472.446 226.281 479.29L186.226 481.145C185.724 481.168 185.318 481.56 185.276 482.06L185.025 485.048C184.983 485.548 185.318 486.002 185.809 486.108L224.956 494.608C224.545 501.534 224.386 508.457 224.477 515.365L185.053 522.21C184.558 522.296 184.204 522.736 184.225 523.237L184.35 526.233C184.371 526.735 184.761 527.143 185.261 527.187L225.089 530.707C225.551 537.632 226.263 544.53 227.221 551.388L189.036 563.099C188.556 563.246 188.26 563.727 188.343 564.222L188.843 567.178C188.927 567.673 189.365 568.03 189.867 568.011L229.746 566.514C231.071 573.33 232.642 580.096 234.454 586.796L198.113 603.167C197.655 603.373 197.421 603.887 197.566 604.368L198.433 607.238C198.578 607.719 199.057 608.017 199.553 607.935L238.842 601.467C241.01 608.07 243.416 614.598 246.059 621.035L212.139 641.78C211.711 642.042 211.543 642.581 211.747 643.04L212.967 645.779C213.171 646.238 213.684 646.474 214.165 646.331L252.236 635.018C255.216 641.304 258.427 647.491 261.866 653.563L230.895 678.332C230.502 678.645 230.404 679.201 230.664 679.631L232.217 682.195C232.477 682.625 233.015 682.794 233.475 682.592L269.737 666.637C273.486 672.503 277.456 678.245 281.646 683.85L254.084 712.244C253.734 712.604 253.705 713.168 254.017 713.562L255.88 715.911C256.192 716.305 256.747 716.406 257.178 716.148L291.094 695.809C295.553 701.152 300.223 706.351 305.101 711.393L281.34 742.983C281.038 743.384 281.081 743.947 281.44 744.298L283.582 746.396C283.94 746.747 284.504 746.778 284.899 746.468L315.982 722.052C321.075 726.78 326.366 731.347 331.852 735.738L312.234 770.063C311.985 770.499 312.098 771.052 312.498 771.356L314.886 773.168C315.286 773.472 315.849 773.432 316.202 773.075L343.995 744.94C349.63 748.979 355.449 752.843 361.45 756.519L346.278 793.057C346.086 793.521 346.267 794.056 346.702 794.307L349.298 795.806C349.733 796.057 350.287 795.946 350.592 795.548L374.649 764.14C380.833 767.498 387.089 770.606 393.405 773.466L382.936 811.603C382.803 812.088 383.05 812.595 383.513 812.79L386.277 813.952C386.739 814.146 387.275 813.967 387.528 813.534L407.445 779.382C413.992 781.938 420.592 784.237 427.233 786.282L421.63 825.41C421.559 825.907 421.867 826.379 422.351 826.514L425.238 827.321C425.722 827.456 426.231 827.211 426.427 826.749L441.905 790.376C448.71 792.08 455.547 793.525 462.404 794.715L461.748 834.257C461.74 834.759 462.105 835.189 462.602 835.263L465.568 835.701C466.065 835.774 466.539 835.468 466.676 834.984L477.484 796.917C484.433 797.743 491.392 798.311 498.345 798.624L502.659 838.006C502.713 838.505 503.13 838.886 503.632 838.897L506.629 838.959C507.131 838.97 507.563 838.606 507.639 838.11L513.603 798.904C520.582 798.846 527.545 798.534 534.479 797.971L543.717 836.598C543.834 837.086 544.295 837.412 544.794 837.36L547.776 837.046C548.276 836.994 548.659 836.579 548.671 836.077L549.678 796.329C556.574 795.399 563.43 794.219 570.233 792.795L584.276 830.055C584.453 830.525 584.951 830.791 585.44 830.676L588.359 829.992C588.847 829.877 589.176 829.417 589.125 828.918L585.132 789.26C591.841 787.479 598.485 785.456 605.05 783.196L623.694 818.481C623.929 818.925 624.456 819.126 624.927 818.951L627.737 817.906C628.208 817.731 628.475 817.234 628.363 816.745L619.412 777.82C625.831 775.22 632.161 772.388 638.389 769.326L661.351 802.058C661.639 802.469 662.188 802.602 662.633 802.37L665.29 800.98C665.735 800.748 665.938 800.221 665.765 799.75L651.982 762.185C658.009 758.809 663.926 755.21 669.717 751.391L696.652 781.044C696.99 781.415 697.551 781.479 697.963 781.192L700.425 779.481C700.837 779.195 700.973 778.647 700.742 778.201L682.321 742.585C687.859 738.489 693.265 734.18 698.526 729.662L729.042 755.771C729.423 756.098 729.988 756.091 730.361 755.755L732.589 753.749C732.962 753.413 733.028 752.852 732.744 752.438L709.936 719.315C714.892 714.569 719.699 709.624 724.342 704.483L758.008 726.639C758.428 726.915 758.987 726.837 759.315 726.457L761.274 724.187C761.602 723.807 761.597 723.243 761.263 722.868L734.379 692.747C738.677 687.439 742.81 681.945 746.766 676.269L783.095 694.105C783.546 694.327 784.091 694.18 784.369 693.761L786.028 691.264C786.306 690.846 786.231 690.286 785.852 689.956L755.279 663.333C756.906 660.712 758.496 658.056 760.049 655.366C761.936 652.097 763.752 648.807 765.497 645.496L803.907 658.684C804.381 658.847 804.904 658.633 805.127 658.183L806.46 655.498C806.683 655.048 806.538 654.502 806.121 654.222L772.361 631.579C775.241 625.325 777.876 619.01 780.271 612.647L820.115 620.934C820.606 621.037 821.097 620.758 821.263 620.284L822.249 617.453C822.414 616.979 822.202 616.455 821.753 616.23L785.347 597.959C787.411 591.415 789.229 584.829 790.803 578.215L831.463 581.45C831.964 581.49 832.416 581.153 832.521 580.661L833.144 577.729C833.249 577.238 832.973 576.745 832.499 576.578L793.991 562.979C795.208 556.25 796.179 549.502 796.906 542.747L837.774 540.855C838.275 540.832 838.682 540.44 838.724 539.94L838.975 536.952C839.017 536.452 838.681 535.998 838.191 535.892L798.151 527.198C798.51 520.396 798.624 513.596 798.498 506.813L838.947 499.79C839.442 499.704 839.796 499.264 839.775 498.763L839.65 495.767C839.629 495.265 839.239 494.857 838.739 494.813L797.783 491.193C797.288 484.424 796.554 477.681 795.585 470.978L834.964 458.901C835.444 458.753 835.74 458.273 835.657 457.778L835.157 454.822C835.073 454.327 834.635 453.97 834.133 453.989L792.921 455.536C791.591 448.902 790.027 442.317 788.235 435.795L825.887 418.833C826.345 418.627 826.579 418.113 826.434 417.632L825.567 414.762C825.422 414.281 824.943 413.983 824.447 414.065L783.665 420.779C781.525 414.377 779.16 408.047 776.572 401.802L811.861 380.22C812.289 379.958 812.457 379.419 812.253 378.96L811.033 376.221C810.829 375.762 810.316 375.526 809.835 375.669L770.164 387.457C767.249 381.382 764.116 375.401 760.77 369.528L793.105 343.668C793.497 343.355 793.596 342.799 793.336 342.369L791.783 339.805C791.523 339.375 790.985 339.205 790.525 339.408L752.616 356.088C748.969 350.434 745.115 344.895 741.057 339.485L769.916 309.756C770.266 309.396 770.294 308.832 769.982 308.438L768.12 306.089C767.808 305.695 767.253 305.594 766.822 305.852L731.275 327.169C726.955 322.028 722.438 317.022 717.728 312.163L742.66 279.017C742.962 278.616 742.919 278.053 742.56 277.702L740.418 275.604C740.059 275.253 739.496 275.222 739.101 275.532L706.464 301.168C701.545 296.624 696.44 292.231 691.155 287.999L711.766 251.937C712.015 251.501 711.902 250.948 711.502 250.644L709.114 248.832C708.714 248.528 708.151 248.568 707.798 248.925L678.588 278.494C673.153 274.613 667.547 270.895 661.774 267.35L677.722 228.943C677.914 228.479 677.733 227.944 677.298 227.693L674.702 226.194ZM718.764 495.68C747.194 495.082 769.842 470.672 762.378 443.233C755.803 419.062 745.709 395.867 732.343 374.414C709.722 338.107 678.436 307.926 641.297 286.583C604.158 265.24 562.33 253.403 519.573 252.137C494.309 251.39 469.189 254.346 444.997 260.833C417.53 268.199 407.843 300.06 421.643 324.925L498.266 462.982C510.864 485.681 534.989 499.543 560.943 498.997L718.764 495.68ZM421.885 699.455C408.188 724.375 418.004 756.194 445.499 763.449C469.718 769.84 494.853 772.696 520.115 771.847C562.868 770.41 604.649 758.406 641.702 736.915C678.755 715.423 709.92 685.118 732.395 648.721C745.674 627.216 755.674 603.983 762.152 579.789C769.506 552.319 746.758 527.999 718.324 527.518L560.451 524.847C534.495 524.408 510.427 538.369 497.923 561.119L421.885 699.455ZM326.622 328.916C346.653 308.732 379.117 316.141 393.85 340.463L475.634 475.482C489.083 497.686 489.14 525.509 475.782 547.768L394.532 683.155C379.899 707.539 347.463 715.08 327.351 694.976C309.636 677.268 294.516 656.992 282.532 634.739C262.249 597.077 251.586 554.935 251.5 512.1C251.415 469.265 261.909 427.08 282.041 389.337C293.937 367.034 308.978 346.695 326.622 328.916ZM515.883 525.489C523.352 523.488 527.784 515.811 525.782 508.342C523.781 500.874 516.105 496.442 508.636 498.443C501.167 500.444 496.735 508.121 498.737 515.589C500.738 523.058 508.414 527.49 515.883 525.489Z" fill="url(#paint2_linear_167_22)"/>
</g>
<defs>
<filter id="filter0_d_167_22" x="80" y="94" width="864" height="864" filterUnits="userSpaceOnUse" color-interpolation-filters="sRGB">
<feFlood flood-opacity="0" result="BackgroundImageFix"/>
<feColorMatrix in="SourceAlpha" type="matrix" values="0 0 0 0 0 0 0 0 0 0 0 0 0 0 0 0 0 0 127 0" result="hardAlpha"/>
<feOffset dy="14"/>
<feGaussianBlur stdDeviation="9"/>
<feComposite in2="hardAlpha" operator="out"/>
<feColorMatrix type="matrix" values="0 0 0 0 0 0 0 0 0 0 0 0 0 0 0 0 0 0 0.25 0"/>
<feBlend mode="normal" in2="BackgroundImageFix" result="effect1_dropShadow_167_22"/>
<feBlend mode="normal" in="SourceGraphic" in2="effect1_dropShadow_167_22" result="shape"/>
</filter>
<filter id="filter1_di_167_22" x="164" y="164" width="696" height="756" filterUnits="userSpaceOnUse" color-interpolation-filters="sRGB">
<feFlood flood-opacity="0" result="BackgroundImageFix"/>
<feColorMatrix in="SourceAlpha" type="matrix" values="0 0 0 0 0 0 0 0 0 0 0 0 0 0 0 0 0 0 127 0" result="hardAlpha"/>
<feOffset dy="4"/>
<feComposite in2="hardAlpha" operator="out"/>
<feColorMatrix type="matrix" values="0 0 0 0 1 0 0 0 0 1 0 0 0 0 1 0 0 0 1 0"/>
<feBlend mode="normal" in2="BackgroundImageFix" result="effect1_dropShadow_167_22"/>
<feBlend mode="normal" in="SourceGraphic" in2="effect1_dropShadow_167_22" result="shape"/>
<feColorMatrix in="SourceAlpha" type="matrix" values="0 0 0 0 0 0 0 0 0 0 0 0 0 0 0 0 0 0 127 0" result="hardAlpha"/>
<feOffset dy="60"/>
<feGaussianBlur stdDeviation="60"/>
<feComposite in2="hardAlpha" operator="arithmetic" k2="-1" k3="1"/>
<feColorMatrix type="matrix" values="0 0 0 0 0 0 0 0 0 0 0 0 0 0 0 0 0 0 1 0"/>
<feBlend mode="normal" in2="shape" result="effect2_innerShadow_167_22"/>
</filter>
<filter id="filter2_di_167_22" x="264.992" y="284.24" width="514.014" height="513.52" filterUnits="userSpaceOnUse" color-interpolation-filters="sRGB">
<feFlood flood-opacity="0" result="BackgroundImageFix"/>
<feColorMatrix in="SourceAlpha" type="matrix" values="0 0 0 0 0 0 0 0 0 0 0 0 0 0 0 0 0 0 127 0" result="hardAlpha"/>
<feOffset dx="10" dy="30"/>
<feGaussianBlur stdDeviation="20"/>
<feComposite in2="hardAlpha" operator="out"/>
<feColorMatrix type="matrix" values="0 0 0 0 0 0 0 0 0 0 0 0 0 0 0 0 0 0 1 0"/>
<feBlend mode="normal" in2="BackgroundImageFix" result="effect1_dropShadow_167_22"/>
<feBlend mode="normal" in="SourceGraphic" in2="effect1_dropShadow_167_22" result="shape"/>
<feColorMatrix in="SourceAlpha" type="matrix" values="0 0 0 0 0 0 0 0 0 0 0 0 0 0 0 0 0 0 127 0" result="hardAlpha"/>
<feOffset dy="4"/>
<feGaussianBlur stdDeviation="3"/>
<feComposite in2="hardAlpha" operator="arithmetic" k2="-1" k3="1"/>
<feColorMatrix type="matrix" values="0 0 0 0 1 0 0 0 0 1 0 0 0 0 1 0 0 0 1 0"/>
<feBlend mode="normal" in2="shape" result="effect2_innerShadow_167_22"/>
</filter>
<filter id="filter3_di_167_22" x="154.224" y="173.041" width="735.553" height="735.919" filterUnits="userSpaceOnUse" color-interpolation-filters="sRGB">
<feFlood flood-opacity="0" result="BackgroundImageFix"/>
<feColorMatrix in="SourceAlpha" type="matrix" values="0 0 0 0 0 0 0 0 0 0 0 0 0 0 0 0 0 0 127 0" result="hardAlpha"/>
<feOffset dx="10" dy="30"/>
<feGaussianBlur stdDeviation="20"/>
<feComposite in2="hardAlpha" operator="out"/>
<feColorMatrix type="matrix" values="0 0 0 0 0 0 0 0 0 0 0 0 0 0 0 0 0 0 1 0"/>
<feBlend mode="normal" in2="BackgroundImageFix" result="effect1_dropShadow_167_22"/>
<feBlend mode="normal" in="SourceGraphic" in2="effect1_dropShadow_167_22" result="shape"/>
<feColorMatrix in="SourceAlpha" type="matrix" values="0 0 0 0 0 0 0 0 0 0 0 0 0 0 0 0 0 0 127 0" result="hardAlpha"/>
<feOffset dy="4"/>
<feGaussianBlur stdDeviation="3"/>
<feComposite in2="hardAlpha" operator="arithmetic" k2="-1" k3="1"/>
<feColorMatrix type="matrix" values="0 0 0 0 1 0 0 0 0 1 0 0 0 0 1 0 0 0 1 0"/>
<feBlend mode="normal" in2="shape" result="effect2_innerShadow_167_22"/>
</filter>
<linearGradient id="paint0_linear_167_22" x1="512" y1="98" x2="512" y2="926" gradientUnits="userSpaceOnUse">
<stop stop-color="#D4E4EA"/>
<stop offset="1" stop-color="#949391"/>
</linearGradient>
<linearGradient id="paint1_linear_167_22" x1="665.5" y1="357.674" x2="358.848" y2="664.675" gradientUnits="userSpaceOnUse">
<stop stop-color="#C9D8DD"/>
<stop offset="1" stop-color="#939593"/>
</linearGradient>
<linearGradient id="paint2_linear_167_22" x1="675.999" y1="226.944" x2="347.999" y2="795.056" gradientUnits="userSpaceOnUse">
<stop stop-color="#C9D8DD"/>
<stop offset="1" stop-color="#939593"/>
</linearGradient>
</defs>
</svg>