<svg xmlns="http://www.w3.org/2000/svg" fill="none" viewBox="98 98 828 828">
<g filter="url(#filter0_d_60_2)">
<rect x="98" y="98" width="828" height="828" rx="180" fill="#181514"/>
</g>
<path d="M511.998 164C319.808 164 164 319.808 164 512.002C164 704.205 319.808 860 511.998 860C704.209 860 860 704.205 860 512.002C860 319.82 704.209 164.017 511.994 164.017L511.998 164ZM671.588 665.919C665.354 676.142 651.973 679.383 641.751 673.108C560.044 623.199 457.186 611.895 336.052 639.572C324.379 642.232 312.744 634.918 310.084 623.24C307.412 611.563 314.697 599.927 326.399 597.268C458.961 566.981 572.669 580.022 664.398 636.081C674.621 642.356 677.862 655.696 671.588 665.919ZM714.182 571.162C706.328 583.928 689.623 587.959 676.865 580.105C583.324 522.607 440.734 505.956 330.093 539.542C315.744 543.876 300.589 535.789 296.234 521.464C291.912 507.115 300.003 491.988 314.327 487.625C440.71 449.277 597.827 467.852 705.247 533.865C718.005 541.719 722.036 558.421 714.182 571.162ZM717.839 472.49C605.681 405.871 420.634 399.746 313.55 432.247C296.354 437.462 278.169 427.755 272.958 410.559C267.747 393.354 277.446 375.182 294.655 369.954C417.58 332.636 621.929 339.846 751.058 416.505C766.558 425.685 771.628 445.661 762.444 461.108C753.302 476.575 733.272 481.674 717.855 472.49H717.839Z" fill="#65D36E"/>
<defs>
<filter id="filter0_d_60_2" x="80" y="94" width="864" height="864" filterUnits="userSpaceOnUse" color-interpolation-filters="sRGB">
<feFlood flood-opacity="0" result="BackgroundImageFix"/>
<feColorMatrix in="SourceAlpha" type="matrix" values="0 0 0 0 0 0 0 0 0 0 0 0 0 0 0 0 0 0 127 0" result="hardAlpha"/>
<feOffset dy="14"/>
<feGaussianBlur stdDeviation="9"/>
<feComposite in2="hardAlpha" operator="out"/>
<feColorMatrix type="matrix" values="0 0 0 0 0 0 0 0 0 0 0 0 0 0 0 0 0 0 0.25 0"/>
<feBlend mode="normal" in2="BackgroundImageFix" result="effect1_dropShadow_60_2"/>
<feBlend mode="normal" in="SourceGraphic" in2="effect1_dropShadow_60_2" result="shape"/>
</filter>
</defs>
</svg>