<svg xmlns="http://www.w3.org/2000/svg" id="low-battery" x="0" y="0" version="1.1" viewBox="2.15 4.52 24.5 11">
  <path stroke-miterlimit="10" d="M 4.147 4.523 L 21.147 4.523 C 22.251 4.523 23.147 5.418 23.147 6.523 L 23.147 13.523 C 23.147 14.627 22.251 15.523 21.147 15.523 L 4.147 15.523 C 3.042 15.523 2.147 14.627 2.147 13.523 L 2.147 6.523 C 2.147 5.418 3.042 4.523 4.147 4.523 Z"/>
  <path d="M 4.647 6.023 L 17.647 6.023 L 17.647 14.023 L 4.647 14.023 C 4.094 14.023 3.647 13.575 3.647 13.023 L 3.647 7.023 C 3.647 6.47 4.094 6.023 4.647 6.023 Z M 24.647 7.573 L 24.647 12.472 C 26.532 12.087 27.294 9.805 26.018 8.364 C 25.659 7.959 25.178 7.681 24.647 7.573 Z"/>
  <g transform="matrix(1, 0, 0, 1, -0.103325, -4.477435)">
    <path stroke-miterlimit="10" d="M4.25 9h17a2 2 0 0 1 2 2v7a2 2 0 0 1-2 2h-17a2 2 0 0 1-2-2v-7a2 2 0 0 1 2-2z" style=""/>
    <path d="M 4.75 10.5 L 17.75 10.5 L 17.75 18.5 L 4.75 18.5 C 4.198 18.5 3.75 18.052 3.75 17.5 L 3.75 11.5 C 3.75 10.948 4.198 10.5 4.75 10.5 Z M 24.75 12.05 L 24.75 16.949 C 26.636 16.564 27.398 14.282 26.121 12.842 C 25.762 12.436 25.281 12.158 24.75 12.05 Z"/>
  </g>
</svg>