<svg xmlns="http://www.w3.org/2000/svg" id="control" x="0" y="0" version="1.1" viewBox="0 0 29 29" xml:space="preserve"><circle cx="21" cy="8" r="2"></circle><path d="M21 14H8c-3.309 0-6-2.691-6-6s2.691-6 6-6h13c3.309 0 6 2.691 6 6s-2.691 6-6 6zM8 4C5.794 4 4 5.794 4 8s1.794 4 4 4h13c2.206 0 4-1.794 4-4s-1.794-4-4-4H8z"></path><circle cx="8" cy="21" r="2"></circle><path d="M21 27H8c-3.309 0-6-2.691-6-6s2.691-6 6-6h13c3.309 0 6 2.691 6 6s-2.691 6-6 6zM8 17c-2.206 0-4 1.794-4 4s1.794 4 4 4h13c2.206 0 4-1.794 4-4s-1.794-4-4-4H8z"></path></svg>